<svg width="808" height="203" xmlns="http://www.w3.org/2000/svg" xmlns:xlink="http://www.w3.org/1999/xlink"><defs><path d="M500 1000C223.858 1000 0 776.142 0 500S223.858 0 500 0s500 223.858 500 500-223.858 500-500 500zm0-82.505c230.333 0 417.055-186.919 417.055-417.495S730.333 82.505 500 82.505 82.945 269.424 82.945 500 269.667 917.495 500 917.495z" id="a"/><filter x="-6.3%" y="-7%" width="113.1%" height="114.9%" filterUnits="objectBoundingBox" id="c"><feOffset dy="1" in="SourceAlpha" result="shadowOffsetOuter1"/><feGaussianBlur stdDeviation="1.5" in="shadowOffsetOuter1" result="shadowBlurOuter1"/><feColorMatrix values="0 0 0 0 0 0 0 0 0 0 0 0 0 0 0 0 0 0 0.25 0" in="shadowBlurOuter1" result="shadowMatrixOuter1"/><feMerge><feMergeNode in="shadowMatrixOuter1"/><feMergeNode in="SourceGraphic"/></feMerge></filter><filter x="-19.5%" y="-10.3%" width="139%" height="120.9%" filterUnits="objectBoundingBox" id="d"><feOffset dy="1" in="SourceAlpha" result="shadowOffsetOuter1"/><feGaussianBlur stdDeviation="1.5" in="shadowOffsetOuter1" result="shadowBlurOuter1"/><feColorMatrix values="0 0 0 0 0 0 0 0 0 0 0 0 0 0 0 0 0 0 0.25 0" in="shadowBlurOuter1" result="shadowMatrixOuter1"/><feMerge><feMergeNode in="shadowMatrixOuter1"/><feMergeNode in="SourceGraphic"/></feMerge></filter><path d="M28.338 0c1.817 0 3.29 1.455 3.29 3.249v61.143c0 1.794-1.473 3.249-3.29 3.249H3.289C1.473 67.64 0 66.186 0 64.392V3.25C0 1.455 1.473 0 3.29 0h25.048z" id="e"/><filter x="-17.5%" y="-17.5%" width="135.9%" height="135.9%" filterUnits="objectBoundingBox" id="g"><feOffset dy="1" in="SourceAlpha" result="shadowOffsetOuter1"/><feGaussianBlur stdDeviation="1.5" in="shadowOffsetOuter1" result="shadowBlurOuter1"/><feColorMatrix values="0 0 0 0 0 0 0 0 0 0 0 0 0 0 0 0 0 0 0.25 0" in="shadowBlurOuter1" result="shadowMatrixOuter1"/><feMerge><feMergeNode in="shadowMatrixOuter1"/><feMergeNode in="SourceGraphic"/></feMerge></filter><path d="M13.763.45h18.093c4.786 0 6.521.499 8.27 1.435a9.755 9.755 0 0 1 4.06 4.058c.935 1.75 1.433 3.485 1.433 8.27v17.53c0 4.786-.498 6.522-1.434 8.271a9.755 9.755 0 0 1-4.058 4.059c-1.75.935-3.485 1.434-8.27 1.434H13.762c-4.786 0-6.521-.499-8.27-1.434a9.755 9.755 0 0 1-4.059-4.059C.498 38.264 0 36.53 0 31.744v-17.53c0-4.786.498-6.522 1.434-8.271a9.755 9.755 0 0 1 4.058-4.058C7.242.949 8.977.45 13.763.45z" id="h"/></defs><g fill="none" fill-rule="evenodd"><g transform="translate(-96)"><mask id="b" fill="#fff"><use xlink:href="#a"/></mask><use fill="#47CCA0" xlink:href="#a"/><circle fill="#47CCA0" mask="url(#b)" cx="500" cy="500" r="500"/><ellipse fill="#3069F0" mask="url(#b)" cx="503.262" cy="502.485" rx="485.555" ry="485.586"/><ellipse fill="#6437CC" mask="url(#b)" cx="501.398" cy="500.994" rx="467.847" ry="468.191"/><ellipse fill="#D957D9" mask="url(#b)" cx="501.864" cy="501.491" rx="452.47" ry="451.789"/><ellipse fill="#FFB92E" mask="url(#b)" cx="500.932" cy="500.994" rx="435.694" ry="435.388"/></g><g filter="url(#c)" transform="translate(338.673 11.776)"><path d="M49.773 103.876c.361-1.362.995-5.79 1.903-13.282h26.395c.77 7.492 1.37 11.92 1.8 13.282.43 1.363 3.054 3.065 7.873 5.109v.908l-45.844.114v-1.022c4.888-2.044 7.513-3.746 7.873-5.109z" fill="#A5BEFA"/><path fill="#FFF" d="M41.9 109.509h45.844v3.982H41.9z"/><rect fill="#FFF" width="126.194" height="90.594" rx="3.599"/><path fill="#141E3B" fill-rule="nonzero" d="M7.394 82.995l112.772.132.112-75.528L7.506 7.467z"/><path fill="#2D5DCC" d="M9.366 9.458h27.112v71.679H9.366z"/><path d="M12.817 31.36H33.52v2.986H12.817zm0 6.47H33.52v2.987H12.817zm0 6.471H33.52v2.987H12.817z" fill="#141E3B"/><path fill="#3069F0" d="M42.394 31.857h38.45v2.49h-38.45zm0 6.471h62.604v2.49H42.394zm0 6.472h49.294v2.488H42.394z"/></g><g filter="url(#d)" transform="translate(453.879 53.766)"><path d="M7.133 2.902c-2.3 0-4.163 1.821-4.163 4.068v63.448c0 2.246 1.864 4.067 4.163 4.067h26.653c2.3 0 4.163-1.82 4.163-4.067V6.97c0-2.247-1.864-4.068-4.163-4.068H7.133zm0-2.592h26.653c3.764 0 6.816 2.981 6.816 6.66v63.448c0 3.678-3.052 6.66-6.816 6.66H7.133c-3.765 0-6.816-2.982-6.816-6.66V6.97C.317 3.29 3.368.31 7.133.31zm.013.012h26.653c3.765 0 6.816 2.982 6.816 6.66V70.43c0 3.679-3.051 6.66-6.816 6.66H7.146C3.382 77.09.33 74.11.33 70.43V6.983c0-3.679 3.052-6.66 6.816-6.66z" fill="#FFF" fill-rule="nonzero"/><g transform="translate(4.646 4.873)"><mask id="f" fill="#fff"><use xlink:href="#e"/></mask><path d="M2.632 0h26.363a2.632 2.632 0 0 1 2.632 2.632v65.009H0V2.632A2.632 2.632 0 0 1 2.632 0z" fill="#141E3B" mask="url(#f)"/><path d="M.11 46.952h31.68v18.224a2.632 2.632 0 0 1-2.633 2.632H2.743a2.632 2.632 0 0 1-2.632-2.632V46.952z" fill="#3069F0" mask="url(#f)"/></g><path fill="#C8D7FA" d="M6.456 18.224h6.706v3.862H6.456zm8.678 0h6.706v3.862h-6.706z"/><path fill="#3069F0" d="M23.813 19.383h10.256v1.93H23.813zM6.456 24.017h27.613v1.93H6.456zm0 5.021h16.568v1.93H6.456z"/><path fill="#C8D7FA" d="M24.996 28.266h6.706v3.862h-6.706z"/></g><g filter="url(#g)" transform="translate(313.478 85.389)"><mask id="i" fill="#fff"><use xlink:href="#h"/></mask><use fill="#000" xlink:href="#h"/><g mask="url(#i)"><path fill="#4D39E0" d="M-10.486-6.927H54.01V57.57h-64.497z"/><path d="M1.956 11.879h29.515v32.42H1.956z"/></g><g mask="url(#i)"><g transform="translate(3.629 9.462)"><path d="M16.56 9.195h2.392c.566 0 .772.06.98.17.206.111.369.274.48.48.11.208.17.414.17.98v2.391c0 .567-.06.772-.17.98-.111.207-.274.37-.48.48-.208.111-.414.17-.98.17H16.56c-.567 0-.772-.059-.98-.17a1.155 1.155 0 0 1-.48-.48c-.111-.208-.17-.413-.17-.98v-2.39c0-.567.059-.773.17-.98.11-.207.273-.37.48-.48.208-.112.413-.17.98-.17z" fill="#4B35EF"/><path fill="#FFF" d="M0 0h25.827v25.836H0z"/><ellipse cx="17.711" cy="11.976" rx="9.102" ry="9.105"/><path d="M13.331 8.441c-2.58 0-4.363 2.012-4.363 4.746 0 2.734 1.783 4.746 4.363 4.746 1.821 0 3.187-1.025 3.832-2.658l4.629 1.443c-1.138 3.455-4.553 5.62-8.499 5.62-5.16 0-9.257-3.836-9.257-9.151 0-5.315 4.097-9.15 9.257-9.15 3.946 0 7.36 2.202 8.499 5.657l-4.629 1.405c-.645-1.595-2.01-2.658-3.832-2.658z" fill="#4B35EF"/><path fill="#FFF" d="M29.414 22.965h7.892v2.87h-7.892z"/></g></g></g></g></svg>